<svg data-v-423bf9ae="" xmlns="http://www.w3.org/2000/svg" viewBox="0 0 388 90" class="iconLeft"><!----><!----><!----><g data-v-423bf9ae="" id="69239c9b-55f5-4820-82d8-290d76a51636" fill="#000000" transform="matrix(3.8961039926133587,0,0,3.8961039926133587,97.23506036120318,11.727271443274674)"><path d="M11.28 6.13L5.95 6.13L5.95 8.16L8.61 8.16C8.61 9.58 7.36 10.39 6.10 10.39C4.48 10.39 3.16 8.79 3.16 6.83C3.16 4.83 4.48 3.22 6.10 3.22C7.13 3.22 8.01 3.63 8.68 4.70L10.40 2.81C9.39 1.60 7.98 0.84 5.95 0.84C2.70 0.84 0.32 3.51 0.32 6.83C0.32 10.14 2.84 12.81 5.95 12.81C8.22 12.81 10.65 11.56 11.28 8.64ZM12.45 12.60L14.92 12.60L14.92 8.82C14.92 8.64 15.11 7.36 16.39 7.36C17.22 7.36 17.68 7.76 17.68 7.76L18.72 5.66C18.72 5.66 18.07 5.21 17.15 5.21C15.74 5.21 14.95 6.45 14.95 6.45L14.92 6.45L14.92 5.42L12.45 5.42ZM26.60 9.35C26.61 9.27 26.61 9.11 26.61 9.02C26.61 6.50 24.95 5.21 22.76 5.21C20.59 5.21 18.82 6.92 18.82 9.02C18.82 11.10 20.59 12.81 22.76 12.81C24.36 12.81 25.68 12.29 26.49 10.93L24.70 10.04C24.09 10.68 23.74 10.84 22.95 10.84C22.32 10.84 21.39 10.46 21.39 9.35ZM21.46 7.98C21.50 7.32 21.98 6.82 22.83 6.82C23.56 6.82 24.08 7.22 24.19 7.98ZM35.04 9.35C35.06 9.27 35.06 9.11 35.06 9.02C35.06 6.50 33.39 5.21 31.21 5.21C29.04 5.21 27.26 6.92 27.26 9.02C27.26 11.10 29.04 12.81 31.21 12.81C32.80 12.81 34.12 12.29 34.93 10.93L33.14 10.04C32.54 10.68 32.19 10.84 31.39 10.84C30.76 10.84 29.83 10.46 29.83 9.35ZM29.90 7.98C29.95 7.32 30.42 6.82 31.28 6.82C32.00 6.82 32.52 7.22 32.63 7.98ZM36.19 12.60L38.67 12.60L38.67 8.54C38.67 7.83 39.40 7.14 40.14 7.14C40.94 7.14 41.43 7.83 41.43 8.54L41.43 12.60L43.90 12.60L43.90 7.87C43.90 5.87 42.07 5.21 40.75 5.21C39.97 5.21 39.26 5.61 38.70 6.17L38.67 6.17L38.67 5.42L36.19 5.42ZM51.31 1.05L48.87 1.05L44.21 12.60L47.04 12.60L47.89 10.29L52.29 10.29L53.14 12.60L55.97 12.60ZM51.39 7.98L48.79 7.98L50.08 4.62L50.11 4.62ZM64.82 9.00C64.82 6.90 63.35 5.21 61.25 5.21C60.27 5.21 59.43 5.64 58.90 6.23L58.87 6.23L58.87 5.42L56.42 5.42L56.42 16.24L58.90 16.24L58.90 11.91C59.49 12.49 60.28 12.81 61.25 12.81C63.35 12.81 64.82 11.10 64.82 9.00ZM62.19 9.00C62.19 10.00 61.45 10.70 60.51 10.70C59.58 10.70 58.84 10.00 58.84 9.00C58.84 8.02 59.54 7.32 60.51 7.32C61.52 7.32 62.19 8.02 62.19 9.00ZM74.38 9.00C74.38 6.90 72.91 5.21 70.81 5.21C69.83 5.21 68.99 5.64 68.46 6.23L68.43 6.23L68.43 5.42L65.98 5.42L65.98 16.24L68.46 16.24L68.46 11.91C69.05 12.49 69.85 12.81 70.81 12.81C72.91 12.81 74.38 11.10 74.38 9.00ZM71.75 9.00C71.75 10.00 71.01 10.70 70.07 10.70C69.15 10.70 68.40 10.00 68.40 9.00C68.40 8.02 69.10 7.32 70.07 7.32C71.08 7.32 71.75 8.02 71.75 9.00Z"></path></g><defs data-v-423bf9ae=""><linearGradient data-v-423bf9ae="" gradientTransform="rotate(25)" id="64274d00-f40c-49c6-b1ce-ae247bf17770" x1="0%" y1="0%" x2="100%" y2="0%"><stop data-v-423bf9ae="" offset="0%" style="stop-color: rgb(208, 160, 112); stop-opacity: 1;"></stop><stop data-v-423bf9ae="" offset="100%" style="stop-color: rgb(107, 227, 113); stop-opacity: 1;"></stop></linearGradient></defs><g data-v-423bf9ae="" id="c7378696-6fbb-44a2-84f4-d179cc4592f3" transform="matrix(1.129234673101013,0,0,1.129234673101013,-16.20527152700268,-11.344040304455845)" stroke="none" fill="url(#64274d00-f40c-49c6-b1ce-ae247bf17770)"><style></style><path d="M46.7 82.8C30 81.1 17.4 67.1 17.4 50.3s12.9-30.9 29.5-32.5l-3.5 3.5c-.4.4-.4 1 0 1.4.2.2.5.3.7.3s.5-.1.7-.3l5.3-5.3c.2-.2.3-.4.3-.7s-.2-.5-.4-.7l-5.3-5.3c-.4-.4-1-.4-1.4 0s-.4 1 0 1.4l3.6 3.6c-17.8 1.5-31.7 16.6-31.7 34.5s13.4 32.7 31.1 34.5h.1c.5 0 .9-.4 1-.9.2-.5-.2-1-.7-1zM53.5 15.7c-.5 0-1 .3-1.1.9-.1.5.3 1 .9 1.1C70 19.4 82.6 33.4 82.6 50.2S69.7 81.1 53.1 82.7l3.5-3.5c.4-.4.4-1 0-1.4s-1-.4-1.4 0L50 83.1c-.2.2-.3.4-.3.7s.1.5.3.7l5.3 5.3c.2.2.5.3.7.3s.5-.1.7-.3c.4-.4.4-1 0-1.4L53 84.7c17.8-1.5 31.7-16.6 31.7-34.5S71.3 17.5 53.5 15.7z"></path></g><!----></svg>